<?xml version="1.0" encoding="utf-8"?>
<!-- Generator: Adobe Illustrator 24.0.1, SVG Export Plug-In . SVG Version: 6.00 Build 0)  -->
<svg version="1.1" xmlns="http://www.w3.org/2000/svg" xmlns:xlink="http://www.w3.org/1999/xlink" x="0px" y="0px"
	 viewBox="0 0 174.4 95.1" style="enable-background:new 0 0 174.4 95.1;" xml:space="preserve">
<style type="text/css">
	.st0{fill:#F9F9F9;}
</style>
<g id="Layer_2">
</g>
<g id="Layer_1">
	<g>
		<path class="st0" d="M68.3,31.8c-2.4,1.8-5,3.5-7.4,5.3l-8,6c-0.4,0.4-10.9,7.6-12.1,8.5c-7.1,5.2-14.5,9.7-21.6,14.9
			c-3,2.2-6.1,4.4-9.1,6.6c-3,2.2-2.6,2.9-0.6,6.2c1.3,2.1,2.6,2.2,5.2,0.4c2.9-2,7.6-5,10.4-7c13.2-9.1,26.8-18.2,39.7-28
			c2.9-2.2,6.2-4.3,9-6.8C75.4,36.3,70.5,30.1,68.3,31.8z M72.2,36.9c-0.5,0.6-4.7,4.2-5.7,4.5c-0.5,0-1.1-0.9-1.4-1.2
			c-0.5-0.6-0.9-1.3-1.4-2c-0.3-0.6,0.1-0.8,0.4-1.2c1.3-1.2,2.6-2,3.8-3c0.4-0.3,1.1-1,1.7-0.6c0.4,0.3,0.7,0.6,1,1
			c0.4,0.4,0.8,0.8,1.1,1.3C72.1,36,72.5,36.5,72.2,36.9z"/>
		<path class="st0" d="M68.7,26.3c0.3-0.2,0.2-0.5,0.2-0.8c0-0.3,0.1-0.5,0.1-0.8c0.1-0.6,0.1-1.2,0-1.8c-0.1-0.3-0.4-0.8-0.7-0.7
			c0,0,0,0,0,0c-0.3,0.2-0.3,0.8-0.4,1.1c-0.1,0.3-0.1,0.6-0.2,0.9c0,0.5-0.2,1.4,0.3,1.8C68.1,26.3,68.5,26.4,68.7,26.3z"/>
		<path class="st0" d="M78.8,42.4c-2.1-1.2-1.9-0.1-1.9-0.1c0.1,0.3,1.7,1.9,2.9,1.7C79.8,44.1,80.9,43.6,78.8,42.4z"/>
		<path class="st0" d="M76,23.6c-0.3,0.1-0.6,1.1-1,2s0,1.4,0.3,1.3c0.6-0.3,1.3-2,1.4-2.4C76.8,24,76.3,23.5,76,23.6z"/>
		<path class="st0" d="M79.7,30.7c0.6,0.1,2.1-1.1,2.5-1.3c0.3-0.3,0.1-1-0.2-1.1c-0.3-0.1-1.1,0.6-1.9,1.2
			C79.3,30,79.4,30.7,79.7,30.7z"/>
		<path class="st0" d="M168.5,36.2c-3.3-14.1-7.4-21.5-11.8-21.4c-4.3,0.1-8,7.8-10.5,22.1c-2.4,13.3-5.8,21.1-9.5,21.2
			c-3.7,0.1-7.6-7.4-10.7-20.6c0,0,0,0,0-0.1l-0.3-1.3c0,0,0,0,0,0c-3.3-14.1-7.4-21.5-11.8-21.4c-4.3,0.1-8,7.8-10.5,22.1
			c-2.4,13.3-5.8,21.1-9.5,21.2s-7.6-7.4-10.7-20.6c0-0.2-0.2-0.4-0.4-0.4c-0.4-0.2-1.2-0.2-1.9-0.3c-0.9-0.2-1.3,0.4-1.2,0.6
			c0.4,0.4,1.9,0.7,2.5,0.8c3.3,13.9,7.3,21.1,11.7,21c4.3-0.1,8-7.8,10.5-22.1c2.4-13.3,5.8-21.1,9.5-21.2
			c3.6-0.1,7.4,7.1,10.5,19.9l0,0l0.1,0.2c0,0.2,0.1,0.3,0.1,0.5c0,0,0,0,0,0l0.4,1.4c3.3,14,7.4,21.4,11.7,21.3
			c4.3-0.1,8-7.8,10.5-22.1c2.4-13.3,5.8-21.1,9.5-21.2c3.7-0.1,7.6,7.4,10.7,20.6c0.1,0.3,0.4,0.5,0.7,0.4
			C168.4,36.8,168.5,36.5,168.5,36.2z"/>
	</g>
</g>
</svg>
