<?xml version="1.0" encoding="utf-8"?>
<!-- Generator: Adobe Illustrator 24.0.1, SVG Export Plug-In . SVG Version: 6.00 Build 0)  -->
<svg version="1.1" xmlns="http://www.w3.org/2000/svg" xmlns:xlink="http://www.w3.org/1999/xlink" x="0px" y="0px"
	 viewBox="0 0 214 51.2" style="enable-background:new 0 0 214 51.2;" xml:space="preserve">
<style type="text/css">
	.st0{fill-rule:evenodd;clip-rule:evenodd;fill:#FFFFFF;}
	.st1{fill:#FFFFFF;}
</style>
<g id="Layer_2">
</g>
<g id="Layer_1">
	<g>
		<path class="st0" d="M55.2,26.7c1.7-0.5,3.5-0.8,5.3-1.3c1.6-0.5,3,4,1.8,4.5c-2.1,0.8-4.4,1.3-6.5,1.8
			c-9.3,2.6-18.9,4.7-28.3,6.9c-2,0.5-5.3,1.1-7.3,1.6c-1.9,0.4-2.6,0.1-2.9-1.3c-0.4-2.2-0.5-2.7,1.7-3.3c2.1-0.5,4.4-1.1,6.5-1.7
			c5.1-1.3,10.2-2.3,15.3-3.6c0.8-0.2,8.3-1.9,8.6-2.1L55.2,26.7z M61.6,29c-0.4,0.2-3.6,1.3-4.1,1.2c-0.3-0.1-0.4-0.7-0.5-1
			c-0.2-0.5-0.3-0.9-0.3-1.4c-0.1-0.4,0.2-0.4,0.5-0.6c1-0.4,1.9-0.6,2.8-0.8c0.3-0.1,0.8-0.3,1.1,0.1c0.1,0.2,0.2,0.5,0.4,0.7
			c0.2,0.3,0.2,0.6,0.3,1C61.8,28.5,61.9,28.9,61.6,29z"/>
		<path class="st0" d="M62.5,20.1c0.2,0,0.3,0.3,0.3,0.5c0,0.4-0.2,0.7-0.4,1c-0.1,0.1-0.1,0.3-0.2,0.4c-0.1,0.1-0.1,0.4-0.3,0.4
			c-0.2,0-0.3-0.1-0.4-0.3c-0.2-0.3,0.1-0.8,0.2-1c0.1-0.2,0.2-0.3,0.3-0.5C62.1,20.5,62.3,20.1,62.5,20.1
			C62.5,20.1,62.5,20.1,62.5,20.1z"/>
		<path class="st0" d="M64.3,34.6c-0.7-0.2-1.3-1.4-1.2-1.6c0,0,0.1-0.6,1.1,0.5C65.1,34.7,64.3,34.6,64.3,34.6z"/>
		<path class="st0" d="M66.8,23.1c-0.2,0.2-0.9,1-1.3,1c-0.2,0-0.3-0.4,0.1-0.8s0.8-0.9,1-0.9C66.8,22.5,67,22.9,66.8,23.1z"/>
	</g>
	<path class="st0" d="M66.9,32.9c-0.3-0.1-1.3-0.8-1.5-1.2c-0.1-0.2,0.3-0.4,0.9-0.1c0.5,0.3,1.2,0.6,1.2,0.8S67.3,33,66.9,32.9z"/>
	<path class="st0" d="M68.8,27.5c-0.3,0.1-1.5,0.4-1.9,0.2c-0.2-0.1-0.1-0.5,0.5-0.7c0.6-0.1,1.3-0.4,1.4-0.3
		C69.1,26.9,69.1,27.4,68.8,27.5z"/>
	<path class="st1" d="M128.8,26.3c-2.3-9.9-5.2-15.1-8.2-15c-3,0.1-5.6,5.4-7.4,15.4c-1.7,9.3-4.1,14.7-6.6,14.8
		c-2.6,0.1-5.3-5.2-7.5-14.4c0,0,0,0,0,0l-0.2-0.9c0,0,0,0,0,0c-2.3-9.9-5.2-15.1-8.2-15c-3,0.1-5.6,5.4-7.4,15.4
		c-1.7,9.3-4.1,14.7-6.6,14.8s-5.3-5.2-7.5-14.4c0-0.2-0.3-0.3-0.5-0.3c-0.2,0-0.3,0.3-0.3,0.5c2.3,9.9,5.2,15.1,8.2,15
		c3-0.1,5.6-5.4,7.4-15.4c1.7-9.3,4.1-14.7,6.6-14.8c2.5-0.1,5.2,5,7.4,13.9l0,0l0,0.2c0,0.1,0.1,0.2,0.1,0.3c0,0,0,0,0,0l0.3,1
		c2.3,9.8,5.2,15,8.2,14.9c3-0.1,5.6-5.4,7.4-15.4c1.7-9.3,4.1-14.7,6.6-14.8c2.6-0.1,5.3,5.2,7.5,14.4c0,0.2,0.3,0.3,0.5,0.3
		C128.7,26.7,128.9,26.5,128.8,26.3z"/>
	<g>
		<path class="st1" d="M135,39.9v-1v-1c0-0.5,0-1.2-0.1-2c-0.1-0.9-0.1-1.6-0.1-1.9l0-1c0-0.3,0-0.6,0-0.9c0,0.1-0.2,0.8-0.5,2.1
			c-0.3,1.2-0.6,2.4-0.9,3.4c-0.3,1-0.6,1.5-0.8,1.5c-0.2,0-0.4-0.1-0.5-0.2c-0.1-0.1-0.2-0.3-0.2-0.5c0-0.5-0.2-1.4-0.5-2.9
			c-0.4-1.5-0.7-2.7-1-3.6l-0.1,1.7c-0.1,1.5-0.1,2.7-0.2,3.7c0,0.9,0,1.6,0,1.9c0,0.1,0,0.2,0,0.2v0.2c0,0.2,0,0.3-0.1,0.4
			s-0.2,0.1-0.4,0.1c-0.1,0-0.2,0-0.3-0.1c-0.1-0.1-0.1-0.2-0.1-0.3c0-1,0.1-2.6,0.2-4.7c0.2-2.1,0.2-3.7,0.2-4.7
			c-0.1-0.1-0.1-0.2-0.1-0.3c0-0.1,0.1-0.2,0.2-0.3c0.1-0.1,0.3-0.1,0.4-0.1c0.1,0,0.4,0.5,0.7,1.4c0.4,1,0.7,2.1,1.1,3.3
			c0.4,1.2,0.6,2.1,0.7,2.6c0.1-0.3,0.1-0.5,0.2-0.8l0.1-0.4c0.3-1.4,0.7-2.7,1-3.9c0.2-0.7,0.4-1.3,0.6-1.7
			c0.2-0.4,0.4-0.6,0.5-0.6c0.1,0,0.3,0,0.4,0.1c0.1,0.1,0.2,0.2,0.2,0.3c0,0.7,0,1.8,0.1,3.3c0.1,1.4,0.1,2.4,0.1,3.2l0,0.8l0,0.8
			c0,0.1,0,0.3,0,0.6l0,0.5c0,0.1,0,0.2,0,0.2c0,0.1,0,0.1,0,0.1c0.1,0.1,0.1,0.2,0.1,0.3c0,0.2-0.1,0.3-0.2,0.5
			c-0.1,0.1-0.2,0.2-0.4,0.2C135.1,40.8,135,40.5,135,39.9z"/>
		<path class="st1" d="M141.4,40.1c-0.1-0.1-0.2-0.2-0.2-0.4c0-0.3-0.1-0.8-0.2-1.6l-0.1-0.3l-1.5-0.2c-0.1,0.2-0.1,0.7-0.3,1.4
			c-0.1,0.5-0.2,0.8-0.3,1c-0.1,0.1-0.2,0.1-0.3,0.1c-0.1,0-0.2,0-0.3-0.1c-0.1-0.1-0.2-0.2-0.2-0.3l0-0.1l0-0.1
			c0.7-2.6,1.2-5.2,1.5-7.8c0,0,0-0.1,0-0.2s0-0.2,0-0.4c0-0.4,0.1-0.7,0.1-0.9c0-0.2,0.1-0.4,0.2-0.5h0.5c0.1,0,0.3,0,0.4,0.1
			c0.1,0.1,0.2,0.2,0.2,0.3c0,0.8,0.1,1.9,0.3,3.5c0.2,1.6,0.3,2.7,0.3,3.3c0,0.1,0,0.2,0.1,0.5c0.1,0.2,0.1,0.4,0.1,0.5
			c0,0.1,0.1,0.4,0.2,0.9c0.1,0.5,0.1,0.8,0.1,1v0c0,0.2-0.1,0.4-0.2,0.4C141.7,40.2,141.5,40.1,141.4,40.1z M140.9,36.6
			c0-0.9-0.1-2.1-0.2-3.5l-0.2-1.6c-0.4,2.4-0.7,4.2-0.9,5.5c0.2,0.1,0.6,0.2,1.4,0.2C140.9,37.1,140.9,36.9,140.9,36.6z"/>
		<path class="st1" d="M145.9,40c-0.2-0.1-0.4-0.2-0.6-0.4c-0.1-0.1-0.3-0.4-0.4-0.6c-0.1-0.3-0.2-0.5-0.2-0.8
			c-0.1-0.2-0.1-0.5-0.1-0.8c0-0.4-0.1-0.7-0.1-1v-0.9v-0.6c0-0.6,0-1.1,0-1.5c0-0.5,0.1-0.9,0.2-1.5c0.1-0.5,0.3-0.9,0.5-1.2
			c0.2-0.3,0.5-0.6,0.9-0.7c0.2-0.1,0.4-0.1,0.6-0.1c0.4,0,0.7,0.1,0.7,0.4c0,0.1,0,0.2-0.1,0.3c-0.1,0.1-0.2,0.1-0.3,0.1
			c-0.1,0-0.1,0-0.2,0c0,0-0.1,0-0.2,0c-0.2,0-0.3,0.1-0.5,0.3c-0.1,0.2-0.2,0.4-0.3,0.8c-0.2,0.6-0.3,1.3-0.3,2.1
			c0,0.7-0.1,1.2-0.1,1.6c0,0.3,0,0.8,0,1.4c0,0.6,0.1,1.1,0.3,1.5c0.1,0.2,0.2,0.4,0.3,0.6c0.1,0.1,0.2,0.3,0.4,0.4
			c0.2,0.1,0.4,0.2,0.5,0.2c0.5,0,0.7-0.8,0.7-2.5v-0.7c-0.1,0-0.2,0-0.4,0h-0.1h-0.2c-0.4,0-0.5-0.1-0.5-0.4c0-0.1,0-0.3,0.1-0.3
			c0.1-0.1,0.2-0.1,0.4-0.1v0h0.2c0.9,0,1.4,0.2,1.4,0.5c0,0.1,0,0.3-0.1,0.6c-0.1,0.2-0.1,0.4-0.1,0.6c0,0.2,0,0.4,0,0.8l0,0.8
			c0,0.5-0.2,0.9-0.5,1.2c-0.3,0.3-0.8,0.4-1.3,0.4C146.4,40.2,146.1,40.1,145.9,40z"/>
		<path class="st1" d="M150.4,39.6c0-0.2,0.2-0.4,0.5-0.4h0.2l0.2,0c0.1,0,0.1,0,0.2-0.1s0-0.1,0-0.3c0-0.2,0-0.4,0-0.8
			c0-0.2-0.1-0.7-0.1-1.3c-0.1-1.6-0.1-2.8-0.1-3.6c0-0.3,0-0.5,0-0.8l0-0.8c0-0.3,0-0.6,0-0.8c-0.2,0-0.3,0.1-0.4,0.1
			c-0.2,0-0.4-0.1-0.4-0.4c0-0.1,0.1-0.2,0.2-0.3s0.3-0.2,0.6-0.2c0.4-0.1,0.8-0.1,1.1-0.1c0.1,0,0.2,0,0.3,0.1
			c0.1,0.1,0.1,0.2,0.1,0.3c0,0.1,0,0.2-0.1,0.3c-0.1,0.1-0.2,0.1-0.3,0.1c-0.1,0-0.1,0-0.2,0h-0.1c-0.1,0-0.2,0-0.2,0.1
			c0,0-0.1,0.1-0.1,0.3c0,1,0.1,2.5,0.2,4.5c0,0.4,0.1,0.9,0.1,1.6c0.1,0.5,0.1,1,0.1,1.4v0.6c0.1,0,0.2,0,0.3,0
			c0.4,0,0.6,0.2,0.6,0.5v0.1l-0.4,0.3c0,0,0,0-0.1,0c-0.1,0-0.2,0-0.3,0c-0.3,0-0.5,0-0.6,0C150.9,40,150.4,39.9,150.4,39.6z"/>
		<path class="st1" d="M156.8,40.1c-0.3-0.1-0.4-0.1-0.6-0.2c-0.7-0.4-1-1.6-1-3.6v-0.4v-0.5V35c0-0.4,0-0.8,0-1.1
			c0-0.3,0-0.7,0.1-1.1c0-0.4,0.1-0.7,0.1-1s0.2-0.5,0.3-0.9c0.1-0.3,0.3-0.5,0.5-0.7c0.2-0.2,0.4-0.3,0.7-0.4
			c0.3-0.1,0.6-0.2,1-0.2c0.2,0,0.3,0,0.4,0.1c0.1,0.1,0.1,0.2,0.1,0.3c0,0.1,0,0.2-0.1,0.3c-0.1,0.1-0.1,0.1-0.2,0.1h-0.7
			c-0.2,0-0.4,0.1-0.5,0.4c-0.2,0.3-0.3,0.6-0.3,1c-0.1,0.8-0.2,1.4-0.2,1.8v0.1l0,1.5c0,0.4,0,0.9,0,1.5c0,0.4,0,0.7,0,1
			c0.1,0.4,0.1,0.7,0.3,0.9c0.1,0.3,0.3,0.5,0.6,0.6c0.2,0.1,0.3,0.1,0.5,0.1c0.1,0,0.2,0,0.3-0.1c0.1,0,0.2,0,0.3,0.1
			c0.1,0.1,0.1,0.1,0.1,0.3c0,0.4-0.3,0.6-0.8,0.6C157.3,40.2,157.1,40.2,156.8,40.1z"/>
		<path class="st1" d="M164.9,40.1c-0.1-0.5-0.2-1.3-0.2-2.3l0-1.4c0-0.4,0-0.9,0-1.4c-0.1-0.1-0.1-0.3-0.1-0.4v0
			c0.1-0.2,0.2-0.6,0.2-1.3l0-0.7c0-0.2,0-0.5,0-0.8c0-0.6,0-1.1-0.1-1.4c0-0.1,0.1-0.3,0.2-0.4c0.1-0.1,0.2-0.2,0.3-0.2h0.7
			c0.3,0,0.5,0.1,0.8,0.2c0.2,0.1,0.4,0.3,0.5,0.5c0.2,0.4,0.3,0.9,0.3,1.5c0,0.4,0,0.7,0,1c0,0.3-0.1,0.6-0.2,0.8
			c0,0.1-0.1,0.2-0.1,0.3c-0.1,0.1-0.1,0.2-0.2,0.3c-0.1,0.2-0.4,0.3-0.7,0.5c-0.1,0.1-0.3,0.1-0.5,0.2v1.6l0,1l0,0.5
			c0,0.6,0.1,1.1,0.1,1.5c0,0.1-0.1,0.2-0.2,0.3s-0.2,0.1-0.4,0.1L164.9,40.1z M166.5,32.1c0-0.3,0-0.5,0-0.7c0-0.1-0.1-0.2-0.1-0.3
			s-0.1-0.1-0.2-0.2c-0.1-0.1-0.2-0.1-0.4-0.1c0,0-0.1,0-0.2,0v0.9c0,0.6,0,1.1,0,1.6c0,0.5,0,0.9,0,1v0.3v0
			C166.2,34.6,166.5,33.7,166.5,32.1z"/>
		<path class="st1" d="M170.9,40.1c-0.2,0.1-0.3,0.2-0.5,0.2c-0.1,0-0.2-0.1-0.3-0.2c-0.1-0.1-0.1-0.2-0.1-0.3c0-0.9,0-2,0.1-3.4
			c0.1-1.5,0.1-2.7,0.1-3.4v-0.1c-0.1-0.6-0.1-1.1-0.1-1.4c0-1,0.2-1.5,0.5-1.5c0.1,0,0.2,0,0.3,0.1c0.1,0.1,0.1,0.2,0.1,0.3
			c0,0.1,0,0.3,0,0.6c0,0.3,0,0.5,0,0.6c0,0.7,0,1.3,0,1.9c0,0.5,0,1.2,0,1.8c-0.1,0.2-0.1,0.4-0.1,0.6v0.2l0,1.2c0,0.4,0,0.8,0,1.2
			c0,0.7,0.2,1.1,0.5,1.1c0,0,0.1,0,0.1,0c0,0,0.1,0,0.2,0c0.1,0,0.2,0,0.4,0c0.6,0,0.8,0.2,0.8,0.5c0,0.1,0,0.2-0.1,0.3
			s-0.2,0.1-0.3,0.1C171.9,40.2,171.4,40.1,170.9,40.1z"/>
		<path class="st1" d="M175.7,40.1c-0.2-0.2-0.4-0.4-0.6-0.7c-0.3-0.6-0.5-1.3-0.6-2c-0.1-0.7-0.1-1.4-0.1-2c0-0.1,0-0.2,0-0.3v-0.3
			c0-0.1,0-0.1,0-0.1v-0.3l0-1.1c0-0.3,0.1-0.9,0.1-1.6c0.1-0.5,0.2-1,0.4-1.4c0.1-0.2,0.2-0.4,0.3-0.5c0.1-0.1,0.2-0.2,0.4-0.2
			c0.4,0,0.8,0.1,1.1,0.2c0.3,0.1,0.6,0.4,0.8,0.6c0.2,0.3,0.4,0.6,0.5,0.9c0.1,0.4,0.2,0.8,0.3,1.2c0.1,0.4,0.1,0.9,0.1,1.4v0.1
			c0,0.3,0,0.6,0,0.9l0,0.9c0,3-0.7,4.4-2.1,4.4C176.2,40.3,175.9,40.2,175.7,40.1z M176.9,39.5c0.2-0.1,0.3-0.4,0.4-0.6
			c0.2-0.5,0.3-1.1,0.4-1.7c0.1-0.5,0.1-1,0.1-1.4c0-0.5,0-1.1-0.1-1.8c-0.1-0.8-0.1-1.4-0.1-1.8v-0.3c0-0.4-0.2-0.7-0.4-1
			c-0.2-0.3-0.5-0.4-0.9-0.4c-0.3,0-0.6,0.2-0.7,0.6c-0.1,0.3-0.2,0.7-0.2,1.2c0,0.2,0,0.4,0,0.5v0.4l0,0.7c0,0.2,0,0.5,0,0.7
			c0,0.6,0,1.1,0,1.6c0,0.8,0.1,1.5,0.3,2.2c0.2,0.8,0.4,1.1,0.7,1.1C176.6,39.7,176.7,39.6,176.9,39.5z"/>
		<path class="st1" d="M181.7,39.8l0-0.6c0-0.2,0-0.4,0-0.6l0-0.5c0-0.1-0.1-1.2-0.2-3.4s-0.2-3.5-0.2-4.1c-0.6,0-1-0.1-1.1-0.2
			c-0.1-0.1-0.2-0.2-0.2-0.3c0-0.1,0.1-0.2,0.2-0.2c0.1-0.1,0.2-0.1,0.3-0.1c0.3,0,0.6,0,1,0.1c0.4,0.1,0.7,0.1,1,0.1h0.1h0.1
			c0.3,0,0.5,0.1,0.5,0.4c0,0.1-0.1,0.2-0.2,0.3c-0.1,0.1-0.2,0.1-0.4,0.1c-0.1,0-0.2,0-0.4,0l-0.3-0.1l0,0.1l0,0.1
			c0,0.9,0.1,2.4,0.3,4.4c0.2,1.9,0.2,3.3,0.2,4.4c0,0.1-0.1,0.2-0.2,0.3c-0.1,0.1-0.2,0.1-0.4,0.1L181.7,39.8z"/>
		<path class="st1" d="M186.6,39.8l0-0.6c0-0.2,0-0.4,0-0.6l0-0.5c0-0.1-0.1-1.2-0.2-3.4c-0.1-2.1-0.2-3.5-0.2-4.1
			c-0.6,0-1-0.1-1.1-0.2c-0.1-0.1-0.2-0.2-0.2-0.3c0-0.1,0.1-0.2,0.2-0.2c0.1-0.1,0.2-0.1,0.3-0.1c0.3,0,0.6,0,1,0.1
			c0.4,0.1,0.7,0.1,1,0.1h0.1h0.1c0.3,0,0.5,0.1,0.5,0.4c0,0.1-0.1,0.2-0.2,0.3c-0.1,0.1-0.2,0.1-0.4,0.1c-0.1,0-0.2,0-0.4,0
			l-0.3-0.1l0,0.1l0,0.1c0,0.9,0.1,2.4,0.3,4.4c0.2,1.9,0.2,3.3,0.2,4.4c0,0.1-0.1,0.2-0.2,0.3c-0.1,0.1-0.2,0.1-0.4,0.1L186.6,39.8
			z"/>
		<path class="st1" d="M190.7,40.1c-0.1-0.1-0.2-0.2-0.2-0.3v-0.4V39c0-0.1,0-0.2,0-0.3c0-0.2,0-0.5,0-1l0-1c0-0.5,0-1.3,0-2.2
			c0-0.9,0.1-1.6,0.1-2.2c0-0.1,0-0.4,0-0.6c0-0.3,0-0.5,0-0.6c0-0.7,0.2-1.1,0.6-1.1c0.3,0,0.7,0.1,1.2,0.2
			c0.4,0.1,0.7,0.3,0.7,0.5c0,0.1,0,0.2-0.1,0.3c-0.1,0.1-0.2,0.2-0.3,0.2c-0.4-0.2-0.8-0.3-1.2-0.3c0,0.2,0,0.4,0,0.7
			c0,0.4,0,0.8,0,1.1c0,0.5,0,0.9,0,1.1l0,0.2l0.2,0c0.1,0,0.2,0,0.3,0c0.5,0,0.7,0.1,0.7,0.4c0,0.1,0,0.2-0.1,0.3
			c-0.1,0.1-0.2,0.1-0.4,0.1c-0.2,0-0.3,0-0.4,0h-0.4c0,0.3,0,0.7,0,1.2c0,0.5,0,1,0,1.4c0,0.6,0,1.1,0,1.4c0,0.6,0,0.9,0,0.9l0.5,0
			c0.2,0,0.4,0,0.6,0c0.4,0,0.6,0.1,0.6,0.4c0,0.1-0.1,0.3-0.2,0.3c-0.1,0.1-0.3,0.1-0.5,0.1H191C190.9,40.2,190.8,40.2,190.7,40.1z
			"/>
		<path class="st1" d="M197.4,39.6c-0.2-0.5-0.4-1.1-0.5-1.6l-0.1-0.5c-0.3-1.5-0.5-2.3-0.6-2.5H196c0,0.3,0,0.6,0,0.8v0.8
			c0,1.4,0.1,2.4,0.3,3.2l-0.2,0.4h-0.4l-0.2-0.2l0-1c0-0.9,0-2.3-0.1-4.2c-0.1-2-0.1-3.4-0.1-4.2c0-0.5,0.2-0.7,0.5-0.7
			c0.6,0,1,0.1,1.4,0.4c0.4,0.3,0.5,0.7,0.5,1.2v1.1c0,0.2,0,0.3-0.1,0.5c-0.1,0.2-0.1,0.4-0.2,0.5l-0.3,0.6l-0.2,0.5l0.1,0.4
			l0.2,1.1c0.1,0.8,0.3,1.4,0.4,1.9s0.3,0.9,0.5,1.3l0.1,0.2c0.1,0.2,0.2,0.4,0.2,0.5c0,0.1,0,0.2-0.1,0.3s-0.1,0.1-0.2,0.1
			C197.8,40.3,197.6,40,197.4,39.6z M196.7,33.2c0.2-0.5,0.2-1,0.2-1.4c0-0.3,0-0.6-0.1-0.9c-0.1-0.2-0.1-0.3-0.3-0.4
			c-0.1-0.1-0.3-0.1-0.4-0.1l0,0.1l0,0.1l0,1.8c0,0.5,0,1.1,0,1.7C196.3,34,196.5,33.7,196.7,33.2z"/>
	</g>
</g>
</svg>
